<svg width="60" height="60" viewBox="0 0 60 60" fill="none" xmlns="http://www.w3.org/2000/svg">
<path fill-rule="evenodd" clip-rule="evenodd" d="M37.2 13.2002H22.8C17.498 13.2002 13.2 17.4983 13.2 22.8002V37.2002C13.2 42.502 17.498 46.8002 22.8 46.8002H37.2C42.5018 46.8002 46.8 42.502 46.8 37.2002V22.8002C46.8 17.4983 42.5018 13.2002 37.2 13.2002Z" stroke="black" stroke-width="3.6" stroke-linecap="round" stroke-linejoin="round"/>
<path fill-rule="evenodd" clip-rule="evenodd" d="M30 37.1998C26.0235 37.1998 22.8 33.9764 22.8 29.9998C22.8 26.0232 26.0235 22.7998 30 22.7998C33.9766 22.7998 37.2 26.0232 37.2 29.9998C37.2 31.9092 36.4414 33.7407 35.0912 35.0909C33.7409 36.4412 31.9095 37.1998 30 37.1998Z" stroke="black" stroke-width="3.6" stroke-linecap="round" stroke-linejoin="round"/>
<path d="M39.6 17.9998C38.2745 17.9998 37.2 19.0743 37.2 20.3998C37.2 21.7253 38.2745 22.7998 39.6 22.7998C40.9254 22.7998 42 21.7253 42 20.3998C42 19.0743 40.9254 17.9998 39.6 17.9998Z" fill="black"/>
<path d="M39.6 19.2001C38.9373 19.2001 38.4 19.7374 38.4 20.4001C38.4 21.0628 38.9373 21.6001 39.6 21.6001C40.2628 21.6001 40.8 21.0628 40.8 20.4001C40.8 19.7374 40.2628 19.2001 39.6 19.2001Z" stroke="black" stroke-width="2.4" stroke-linecap="round"/>
</svg>
